<svg xmlns="http://www.w3.org/2000/svg" width="17" height="17" fill="none" style=""><rect id="backgroundrect" width="100%" height="100%" x="0" y="0" fill="none" stroke="none" style="" class=""/>




<g class="currentLayer" style=""><title>Layer 1</title><path d="M16.98400762939454,13.251195768070222 C16.983007629394535,13.74439576807022 16.885007629394522,14.232495768070223 16.69600762939453,14.68779576807022 C16.50600762939453,15.143095768070221 16.229007629394545,15.55659576807022 15.880007629394527,15.90469576807022 C15.532007629394542,16.25279576807022 15.118007629394526,16.52869576807022 14.662007629394537,16.71659576807022 C14.207007629394525,16.90459576807022 13.719007629394525,17.000895768070222 13.22600762939453,16.99999576807022 L3.744007629394531,16.98339576807022 C2.7490076293945265,16.98169576807022 1.7960076293945235,16.58439576807022 1.0940076293945253,15.878895768070223 C0.39200762939452727,15.173395768070222 -0.001992370605478301,14.217495768070222 0.000007629394531250003,13.22159576807022 L0.016007629394522386,3.7487857680702206 C0.017007629394527164,3.255625768070221 0.11500762939454034,2.7674657680702204 0.30400762939453335,2.3121757680702206 C0.4940076293945311,1.8568957680702205 0.7710076293945178,1.443385768070222 1.1200076293945358,1.0952857680702213 C1.4680076293945206,0.7471757680702211 1.8820076293945365,0.47128576807022077 2.338007629394525,0.2833557680702211 C2.7930076293945376,0.09542576807022135 3.281007629394537,-0.0008542319297788484 3.774007629394532,0.000005768070220568691 L13.256007629394531,0.016575768070221212 C14.251007629394536,0.01831576807022106 15.204007629394539,0.41563576807022073 15.906007629394537,1.1211257680702218 C16.608007629394535,1.8266057680702215 17.00200762939454,2.782465768070221 17.00000762939453,3.7784357680702207 L16.98400762939454,13.251195768070222 zM15.759007629394517,3.9507157680702214 C15.759007629394517,3.599285768070221 15.691007629394534,3.251165768070221 15.55700762939452,2.9262457680702205 C15.423007629394533,2.6013257680702218 15.227007629394535,2.3059657680702212 14.979007629394545,2.05702576807022 C14.731007629394526,1.808085768070221 14.437007629394543,1.610445768070221 14.11300762939453,1.4753857680702218 C13.789007629394519,1.3403357680702221 13.442007629394539,1.2705057680702208 13.09100762939454,1.2698857680702211 L3.924007629394538,1.25386576807022 C3.5730076293945388,1.2532457680702205 3.2250076293945256,1.3218557680702219 2.9010076293945417,1.4557757680702217 C2.5760076293945247,1.5896957680702215 2.281007629394537,1.7863057680702212 2.032007629394542,2.0343757680702215 C1.784007629394523,2.2824357680702203 1.586007629394544,2.5771157680702217 1.4520076293945294,2.901555768070221 C1.3170076293945385,3.2260057680702214 1.2470076293945453,3.5738857680702214 1.2460076293945406,3.92531576807022 L1.2310076293945258,12.98389576807022 C1.230007629394521,13.335295768070221 1.298007629394533,13.68339576807022 1.4320076293945192,14.00829576807022 C1.5660076293945338,14.333295768070222 1.7620076293945317,14.62859576807022 2.010007629394522,14.877595768070222 C2.258007629394541,15.126495768070221 2.5520076293945237,15.324095768070222 2.876007629394536,15.45919576807022 C3.20000762939452,15.594295768070221 3.548007629394533,15.664095768070226 3.899007629394532,15.66469576807022 L13.065007629394529,15.680695768070223 C13.416007629394528,15.681295768070221 13.764007629394541,15.612695768070221 14.08900762939453,15.47879576807022 C14.413007629394542,15.34489576807022 14.70800762939453,15.14829576807022 14.957007629394525,14.900195768070223 C15.205007629394544,14.652195768070222 15.403007629394523,14.357495768070223 15.538007629394542,14.032995768070222 C15.672007629394528,13.708595768070222 15.742007629394521,13.360695768070222 15.743007629394526,13.00929576807022 L15.759007629394517,3.9507157680702214 z" fill="black" id="svg_1" class=""/><rect x="4.491004943847656" y="8.01889568567276" width="8.339619636535645" height="1.28302001953125" rx="0.6415089964866638" fill="black" id="svg_2" class=""/><rect x="9.302009582519531" y="4.4905954003334045" width="8.339619636535645" height="1.28302001953125" rx="0.6415089964866638" transform="rotate(90 9.302009582519533,4.490595340728761) " fill="black" id="svg_3" class=""/></g></svg>