<svg xmlns="http://www.w3.org/2000/svg" width="17" height="17" fill="none" style=""><rect id="backgroundrect" width="100%" height="100%" x="0" y="0" fill="none" stroke="none" style="" class=""/>




<g class="currentLayer" style=""><title>Layer 1</title><path d="M16.984006675720224,13.251195708465577 C16.98300667572022,13.744395708465575 16.885006675720206,14.232495708465578 16.696006675720213,14.687795708465575 C16.506006675720215,15.143095708465577 16.22900667572023,15.556595708465576 15.88000667572021,15.904695708465574 C15.532006675720226,16.252795708465577 15.11800667572021,16.528695708465577 14.662006675720221,16.716595708465576 C14.207006675720208,16.904595708465575 13.719006675720209,17.000895708465578 13.226006675720214,16.999995708465576 L3.7440066757202146,16.983395708465576 C2.74900667572021,16.981695708465576 1.7960066757202071,16.584395708465575 1.0940066757202098,15.878895708465578 C0.39200667572021075,15.173395708465577 -0.001993324279794706,14.217495708465577 0.00000667572021484375,13.221595708465575 L0.016006675720205976,3.748785708465576 C0.01700667572021075,3.255625708465576 0.11500667572022394,2.7674657084655756 0.3040066757202169,2.312175708465576 C0.4940066757202146,1.8568957084655766 0.7710066757202014,1.4433857084655761 1.1200066757202194,1.0952857084655774 C1.4680066757202042,0.7471757084655763 1.8820066757202198,0.47128570846557594 2.3380066757202087,0.28335570846557623 C2.793006675720221,0.09542570846557652 3.2810066757202208,-0.0008542915344227353 3.7740066757202158,0.000005708465575793298 L13.256006675720215,0.01657570846557732 C14.25100667572022,0.018315708465576286 15.204006675720223,0.41563570846557596 15.90600667572022,1.1211257084655761 C16.60800667572022,1.8266057084655767 17.002006675720224,2.782465708465576 17.000006675720215,3.778435708465576 L16.984006675720224,13.251195708465577 zM15.759006675720201,3.9507157084655766 C15.759006675720201,3.599285708465576 15.691006675720217,3.2511657084655763 15.557006675720203,2.9262457084655757 C15.423006675720217,2.601325708465577 15.227006675720219,2.3059657084655774 14.979006675720228,2.0570257084655763 C14.73100667572021,1.8080857084655761 14.437006675720227,1.6104457084655763 14.113006675720214,1.4753857084655762 C13.789006675720202,1.3403357084655774 13.442006675720222,1.270505708465576 13.091006675720223,1.2698857084655764 L3.9240066757202214,1.2538657084655762 C3.5730066757202223,1.2532457084655757 3.225006675720209,1.3218557084655762 2.9010066757202253,1.455775708465576 C2.5760066757202082,1.5896957084655767 2.2810066757202208,1.7863057084655773 2.0320066757202255,2.0343757084655767 C1.7840066757202067,2.2824357084655755 1.5860066757202276,2.577115708465577 1.452006675720213,2.901555708465576 C1.3170066757202221,3.2260057084655767 1.2470066757202298,3.5738857084655766 1.2460066757202242,3.9253157084655754 L1.2310066757202094,12.983895708465575 C1.2300066757202046,13.335295708465576 1.2980066757202167,13.683395708465575 1.4320066757202028,14.008295708465575 C1.5660066757202173,14.333295708465577 1.7620066757202153,14.628595708465575 2.0100066757202057,14.877595708465577 C2.2580066757202246,15.126495708465576 2.5520066757202073,15.324095708465578 2.8760066757202196,15.459195708465575 C3.2000066757202035,15.594295708465577 3.5480066757202167,15.664095708465577 3.8990066757202158,15.664695708465576 L13.065006675720213,15.680695708465578 C13.416006675720212,15.681295708465576 13.764006675720225,15.612695708465576 14.089006675720213,15.478795708465576 C14.413006675720226,15.344895708465575 14.708006675720213,15.148295708465575 14.957006675720208,14.900195708465578 C15.205006675720227,14.652195708465577 15.403006675720206,14.357495708465578 15.538006675720226,14.032995708465577 C15.672006675720212,13.708595708465577 15.742006675720205,13.360695708465578 15.74300667572021,13.009295708465576 L15.759006675720201,3.9507157084655766 z" fill="black" id="svg_1" class=""/><rect x="4.49100399017334" y="8.018895626068115" width="8.339619636535645" height="1.28302001953125" rx="0.6415089964866638" fill="black" id="svg_2" class=""/><rect x="9.302008628845215" y="4.49059534072876" width="8.339619636535645" height="1.28302001953125" rx="0.6415089964866638" transform="rotate(90 9.302008628845217,4.490595817565919) " fill="black" id="svg_3" class=""/></g></svg>